<svg width="48" height="48" viewBox="0 0 48 48" fill="none" xmlns="http://www.w3.org/2000/svg">
  <!-- 배경 원 -->
  <circle cx="24" cy="24" r="22" fill="url(#gradient-bg)"/>

  <!-- 중앙 사람 (큰) -->
  <circle cx="24" cy="16" r="5" fill="white"/>
  <path d="M24 22c-5 0-9 3-9 7v3h18v-3c0-4-4-7-9-7z" fill="white"/>

  <!-- 왼쪽 사람 (작은) -->
  <circle cx="12" cy="20" r="3.5" fill="white" opacity="0.85"/>
  <path d="M12 24.5c-3.5 0-6 2-6 4.5v2h12v-2c0-2.5-2.5-4.5-6-4.5z" fill="white" opacity="0.85"/>

  <!-- 오른쪽 사람 (작은) -->
  <circle cx="36" cy="20" r="3.5" fill="white" opacity="0.85"/>
  <path d="M36 24.5c-3.5 0-6 2-6 4.5v2h12v-2c0-2.5-2.5-4.5-6-4.5z" fill="white" opacity="0.85"/>

  <!-- 연결선 (모임 느낌) -->
  <path d="M15 28 L24 25 L33 28" stroke="white" stroke-width="1.5" stroke-linecap="round" opacity="0.6" fill="none"/>

  <!-- 그라데이션 정의 -->
  <defs>
    <linearGradient id="gradient-bg" x1="0" y1="0" x2="48" y2="48">
      <stop offset="0%" stop-color="#0ea5e9"/>
      <stop offset="100%" stop-color="#0369a1"/>
    </linearGradient>
  </defs>
</svg>
